<?xml version="1.0" encoding="UTF-8" standalone="no"?>
<!DOCTYPE svg PUBLIC "-//W3C//DTD SVG 1.1//EN"
 "http://www.w3.org/Graphics/SVG/1.1/DTD/svg11.dtd">
<!-- Generated by graphviz version 2.38.0 (20140413.2041)
 -->
<!-- Title: G Pages: 1 -->
<svg width="638pt" height="1368pt"
 viewBox="0.00 0.00 638.27 1368.00" xmlns="http://www.w3.org/2000/svg" xmlns:xlink="http://www.w3.org/1999/xlink">
<g id="graph0" class="graph" transform="scale(1 1) rotate(0) translate(4 1364)">
<title>G</title>
<polygon fill="white" stroke="none" points="-4,4 -4,-1364 634.266,-1364 634.266,4 -4,4"/>
<g id="clust1" class="cluster"><title>cluster_Global</title>
<path fill="none" stroke="gray" d="M157.883,-152C157.883,-152 610.266,-152 610.266,-152 616.266,-152 622.266,-158 622.266,-164 622.266,-164 622.266,-1340 622.266,-1340 622.266,-1346 616.266,-1352 610.266,-1352 610.266,-1352 157.883,-1352 157.883,-1352 151.883,-1352 145.883,-1346 145.883,-1340 145.883,-1340 145.883,-164 145.883,-164 145.883,-158 151.883,-152 157.883,-152"/>
<text text-anchor="middle" x="384.074" y="-1339.2" font-family="Times New Roman,serif" font-size="11.00" fill="gray">Global</text>
</g>
<g id="clust2" class="cluster"><title>cluster_\classes</title>
<path fill="none" stroke="gray" d="M463.266,-706C463.266,-706 602.266,-706 602.266,-706 608.266,-706 614.266,-712 614.266,-718 614.266,-718 614.266,-1312 614.266,-1312 614.266,-1318 608.266,-1324 602.266,-1324 602.266,-1324 463.266,-1324 463.266,-1324 457.266,-1324 451.266,-1318 451.266,-1312 451.266,-1312 451.266,-718 451.266,-718 451.266,-712 457.266,-706 463.266,-706"/>
<text text-anchor="middle" x="532.766" y="-1311.2" font-family="Times New Roman,serif" font-size="11.00" fill="gray">classes</text>
</g>
<g id="clust3" class="cluster"><title>cluster_\classes\util</title>
<path fill="none" stroke="gray" d="M508.266,-1170C508.266,-1170 557.266,-1170 557.266,-1170 563.266,-1170 569.266,-1176 569.266,-1182 569.266,-1182 569.266,-1284 569.266,-1284 569.266,-1290 563.266,-1296 557.266,-1296 557.266,-1296 508.266,-1296 508.266,-1296 502.266,-1296 496.266,-1290 496.266,-1284 496.266,-1284 496.266,-1182 496.266,-1182 496.266,-1176 502.266,-1170 508.266,-1170"/>
<text text-anchor="middle" x="532.766" y="-1283.2" font-family="Times New Roman,serif" font-size="11.00" fill="gray">util</text>
</g>
<g id="clust4" class="cluster"><title>cluster_\classes\entity</title>
<path fill="none" stroke="gray" d="M501.266,-1036C501.266,-1036 564.266,-1036 564.266,-1036 570.266,-1036 576.266,-1042 576.266,-1048 576.266,-1048 576.266,-1150 576.266,-1150 576.266,-1156 570.266,-1162 564.266,-1162 564.266,-1162 501.266,-1162 501.266,-1162 495.266,-1162 489.266,-1156 489.266,-1150 489.266,-1150 489.266,-1048 489.266,-1048 489.266,-1042 495.266,-1036 501.266,-1036"/>
<text text-anchor="middle" x="532.766" y="-1149.2" font-family="Times New Roman,serif" font-size="11.00" fill="gray">entity</text>
</g>
<g id="clust5" class="cluster"><title>cluster_\classes\data</title>
<path fill="none" stroke="gray" d="M471.266,-902C471.266,-902 594.266,-902 594.266,-902 600.266,-902 606.266,-908 606.266,-914 606.266,-914 606.266,-1016 606.266,-1016 606.266,-1022 600.266,-1028 594.266,-1028 594.266,-1028 471.266,-1028 471.266,-1028 465.266,-1028 459.266,-1022 459.266,-1016 459.266,-1016 459.266,-914 459.266,-914 459.266,-908 465.266,-902 471.266,-902"/>
<text text-anchor="middle" x="532.766" y="-1015.2" font-family="Times New Roman,serif" font-size="11.00" fill="gray">data</text>
</g>
<g id="clust6" class="cluster"><title>cluster_\classes\business</title>
<path fill="none" stroke="gray" d="M477.766,-714C477.766,-714 587.766,-714 587.766,-714 593.766,-714 599.766,-720 599.766,-726 599.766,-726 599.766,-882 599.766,-882 599.766,-888 593.766,-894 587.766,-894 587.766,-894 477.766,-894 477.766,-894 471.766,-894 465.766,-888 465.766,-882 465.766,-882 465.766,-726 465.766,-726 465.766,-720 471.766,-714 477.766,-714"/>
<text text-anchor="middle" x="532.766" y="-881.2" font-family="Times New Roman,serif" font-size="11.00" fill="gray">business</text>
</g>
<g id="clust7" class="cluster"><title>cluster_\League</title>
<path fill="none" stroke="gray" d="M484.266,-366C484.266,-366 581.266,-366 581.266,-366 587.266,-366 593.266,-372 593.266,-378 593.266,-378 593.266,-534 593.266,-534 593.266,-540 587.266,-546 581.266,-546 581.266,-546 484.266,-546 484.266,-546 478.266,-546 472.266,-540 472.266,-534 472.266,-534 472.266,-378 472.266,-378 472.266,-372 478.266,-366 484.266,-366"/>
<text text-anchor="middle" x="532.766" y="-533.2" font-family="Times New Roman,serif" font-size="11.00" fill="gray">League</text>
</g>
<g id="clust8" class="cluster"><title>cluster_\League\OAuth2</title>
<path fill="none" stroke="gray" d="M492.266,-374C492.266,-374 573.266,-374 573.266,-374 579.266,-374 585.266,-380 585.266,-386 585.266,-386 585.266,-506 585.266,-506 585.266,-512 579.266,-518 573.266,-518 573.266,-518 492.266,-518 492.266,-518 486.266,-518 480.266,-512 480.266,-506 480.266,-506 480.266,-386 480.266,-386 480.266,-380 486.266,-374 492.266,-374"/>
<text text-anchor="middle" x="532.766" y="-505.2" font-family="Times New Roman,serif" font-size="11.00" fill="gray">OAuth2</text>
</g>
<g id="clust9" class="cluster"><title>cluster_\League\OAuth2\Client</title>
<path fill="none" stroke="gray" d="M500.266,-382C500.266,-382 565.266,-382 565.266,-382 571.266,-382 577.266,-388 577.266,-394 577.266,-394 577.266,-478 577.266,-478 577.266,-484 571.266,-490 565.266,-490 565.266,-490 500.266,-490 500.266,-490 494.266,-490 488.266,-484 488.266,-478 488.266,-478 488.266,-394 488.266,-394 488.266,-388 494.266,-382 500.266,-382"/>
<text text-anchor="middle" x="532.766" y="-477.2" font-family="Times New Roman,serif" font-size="11.00" fill="gray">Client</text>
</g>
<g id="clust10" class="cluster"><title>cluster_\League\OAuth2\Client\Provider</title>
<path fill="none" stroke="gray" d="M508.266,-390C508.266,-390 557.266,-390 557.266,-390 563.266,-390 569.266,-396 569.266,-402 569.266,-402 569.266,-450 569.266,-450 569.266,-456 563.266,-462 557.266,-462 557.266,-462 508.266,-462 508.266,-462 502.266,-462 496.266,-456 496.266,-450 496.266,-450 496.266,-402 496.266,-402 496.266,-396 502.266,-390 508.266,-390"/>
<text text-anchor="middle" x="532.766" y="-449.2" font-family="Times New Roman,serif" font-size="11.00" fill="gray">Provider</text>
</g>
<!-- \\classes\\util\\Config -->
<g id="node1" class="node"><title>\\classes\\util\\Config</title>
<polygon fill="none" stroke="black" points="561.266,-1268 504.266,-1268 504.266,-1232 561.266,-1232 561.266,-1268"/>
<text text-anchor="middle" x="532.766" y="-1247.2" font-family="Courier,monospace" font-size="11.00">Config</text>
</g>
<!-- \\classes\\util\\DBUtil -->
<g id="node2" class="node"><title>\\classes\\util\\DBUtil</title>
<polygon fill="none" stroke="black" points="561.266,-1214 504.266,-1214 504.266,-1178 561.266,-1178 561.266,-1214"/>
<text text-anchor="middle" x="532.766" y="-1193.2" font-family="Courier,monospace" font-size="11.00">DBUtil</text>
</g>
<!-- \\classes\\entity\\User -->
<g id="node3" class="node"><title>\\classes\\entity\\User</title>
<polygon fill="none" stroke="black" points="559.766,-1134 505.766,-1134 505.766,-1098 559.766,-1098 559.766,-1134"/>
<text text-anchor="middle" x="532.766" y="-1113.2" font-family="Courier,monospace" font-size="11.00">User</text>
</g>
<!-- \\classes\\entity\\Feedback -->
<g id="node4" class="node"><title>\\classes\\entity\\Feedback</title>
<polygon fill="none" stroke="black" points="568.266,-1080 497.266,-1080 497.266,-1044 568.266,-1044 568.266,-1080"/>
<text text-anchor="middle" x="532.766" y="-1059.2" font-family="Courier,monospace" font-size="11.00">Feedback</text>
</g>
<!-- \\classes\\data\\UserManagerDB -->
<g id="node5" class="node"><title>\\classes\\data\\UserManagerDB</title>
<polygon fill="none" stroke="black" points="584.766,-1000 480.766,-1000 480.766,-964 584.766,-964 584.766,-1000"/>
<text text-anchor="middle" x="532.766" y="-979.2" font-family="Courier,monospace" font-size="11.00">UserManagerDB</text>
</g>
<!-- \\classes\\data\\FeedbackManagerDB -->
<g id="node6" class="node"><title>\\classes\\data\\FeedbackManagerDB</title>
<polygon fill="none" stroke="black" points="598.266,-946 467.266,-946 467.266,-910 598.266,-910 598.266,-946"/>
<text text-anchor="middle" x="532.766" y="-925.2" font-family="Courier,monospace" font-size="11.00">FeedbackManagerDB</text>
</g>
<!-- \\classes\\business\\UserManager -->
<g id="node7" class="node"><title>\\classes\\business\\UserManager</title>
<polygon fill="none" stroke="black" points="578.266,-866 487.266,-866 487.266,-830 578.266,-830 578.266,-866"/>
<text text-anchor="middle" x="532.766" y="-845.2" font-family="Courier,monospace" font-size="11.00">UserManager</text>
</g>
<!-- \\classes\\business\\Validation -->
<g id="node8" class="node"><title>\\classes\\business\\Validation</title>
<polygon fill="none" stroke="black" points="574.766,-812 490.766,-812 490.766,-776 574.766,-776 574.766,-812"/>
<text text-anchor="middle" x="532.766" y="-791.2" font-family="Courier,monospace" font-size="11.00">Validation</text>
</g>
<!-- \\classes\\business\\FeedbackManager -->
<g id="node9" class="node"><title>\\classes\\business\\FeedbackManager</title>
<polygon fill="none" stroke="black" points="591.766,-758 473.766,-758 473.766,-722 591.766,-722 591.766,-758"/>
<text text-anchor="middle" x="532.766" y="-737.2" font-family="Courier,monospace" font-size="11.00">FeedbackManager</text>
</g>
<!-- \\League\\OAuth2\\Client\\Provider\\Google -->
<g id="node10" class="node"><title>\\League\\OAuth2\\Client\\Provider\\Google</title>
<polygon fill="none" stroke="black" points="561.266,-434 504.266,-434 504.266,-398 561.266,-398 561.266,-434"/>
<text text-anchor="middle" x="532.766" y="-413.2" font-family="Courier,monospace" font-size="11.00">Google</text>
</g>
<!-- \\League\\OAuth2\\Client\\Provider\\AbstractProvider -->
<g id="node19" class="node"><title>\\League\\OAuth2\\Client\\Provider\\AbstractProvider</title>
<ellipse fill="none" stroke="black" cx="192.383" cy="-126" rx="192.266" ry="18"/>
<text text-anchor="middle" x="192.383" y="-122.3" font-family="Times New Roman,serif" font-size="14.00" fill="gray">\League\OAuth2\Client\Provider\AbstractProvider</text>
</g>
<!-- \\League\\OAuth2\\Client\\Provider\\Google&#45;&gt;\\League\\OAuth2\\Client\\Provider\\AbstractProvider -->
<g id="edge2" class="edge"><title>\\League\\OAuth2\\Client\\Provider\\Google&#45;&gt;\\League\\OAuth2\\Client\\Provider\\AbstractProvider</title>
<path fill="none" stroke="black" d="M504.071,-415.184C486.708,-413.21 465.077,-407.849 451.266,-394 371.291,-313.804 470.611,-221.878 384.766,-148 381.175,-144.91 377.396,-142.094 373.46,-139.533"/>
<polygon fill="none" stroke="black" points="375,-136.377 364.606,-134.321 371.449,-142.41 375,-136.377"/>
</g>
<!-- \\SMTP -->
<g id="node11" class="node"><title>\\SMTP</title>
<polygon fill="none" stroke="black" points="559.766,-644 505.766,-644 505.766,-608 559.766,-608 559.766,-644"/>
<text text-anchor="middle" x="532.766" y="-623.2" font-family="Courier,monospace" font-size="11.00">SMTP</text>
</g>
<!-- \\PHPMailerOAuthGoogle -->
<g id="node12" class="node"><title>\\PHPMailerOAuthGoogle</title>
<polygon fill="none" stroke="black" points="608.766,-590 456.766,-590 456.766,-554 608.766,-554 608.766,-590"/>
<text text-anchor="middle" x="532.766" y="-569.2" font-family="Courier,monospace" font-size="11.00">PHPMailerOAuthGoogle</text>
</g>
<!-- \\PHPMailerOAuth -->
<g id="node13" class="node"><title>\\PHPMailerOAuth</title>
<polygon fill="none" stroke="black" points="588.266,-698 477.266,-698 477.266,-662 588.266,-662 588.266,-698"/>
<text text-anchor="middle" x="532.766" y="-677.2" font-family="Courier,monospace" font-size="11.00">PHPMailerOAuth</text>
</g>
<!-- \\PHPMailer -->
<g id="node14" class="node"><title>\\PHPMailer</title>
<polygon fill="none" stroke="black" points="230.883,-698 153.883,-698 153.883,-662 230.883,-662 230.883,-698"/>
<text text-anchor="middle" x="192.383" y="-677.2" font-family="Courier,monospace" font-size="11.00">PHPMailer</text>
</g>
<!-- \\PHPMailerOAuth&#45;&gt;\\PHPMailer -->
<g id="edge1" class="edge"><title>\\PHPMailerOAuth&#45;&gt;\\PHPMailer</title>
<path fill="none" stroke="black" d="M477.023,-680C411.776,-680 303.78,-680 241.569,-680"/>
<polygon fill="none" stroke="black" points="241.249,-676.5 231.249,-680 241.249,-683.5 241.249,-676.5"/>
</g>
<!-- \\phpmailerException -->
<g id="node15" class="node"><title>\\phpmailerException</title>
<polygon fill="none" stroke="black" points="601.766,-358 463.766,-358 463.766,-322 601.766,-322 601.766,-358"/>
<text text-anchor="middle" x="532.766" y="-337.2" font-family="Courier,monospace" font-size="11.00">phpmailerException</text>
</g>
<!-- \\Exception -->
<g id="node20" class="node"><title>\\Exception</title>
<ellipse fill="none" stroke="black" cx="192.383" cy="-72" rx="50.0912" ry="18"/>
<text text-anchor="middle" x="192.383" y="-68.3" font-family="Times New Roman,serif" font-size="14.00" fill="gray">\Exception</text>
</g>
<!-- \\phpmailerException&#45;&gt;\\Exception -->
<g id="edge3" class="edge"><title>\\phpmailerException&#45;&gt;\\Exception</title>
<path fill="none" stroke="black" d="M463.433,-322.623C458.999,-319.873 454.873,-316.689 451.266,-313 381.63,-241.792 460.631,-163.53 384.766,-99 347.812,-67.5676 291.556,-63.0271 249.586,-65.0289"/>
<polygon fill="none" stroke="black" points="249.282,-61.5409 239.515,-65.6461 249.71,-68.5278 249.282,-61.5409"/>
</g>
<!-- \\POP3 -->
<g id="node16" class="node"><title>\\POP3</title>
<polygon fill="none" stroke="black" points="559.766,-304 505.766,-304 505.766,-268 559.766,-268 559.766,-304"/>
<text text-anchor="middle" x="532.766" y="-283.2" font-family="Courier,monospace" font-size="11.00">POP3</text>
</g>
<!-- \\UserManagerTest -->
<g id="node17" class="node"><title>\\UserManagerTest</title>
<polygon fill="none" stroke="black" points="591.766,-196 473.766,-196 473.766,-160 591.766,-160 591.766,-196"/>
<text text-anchor="middle" x="532.766" y="-175.2" font-family="Courier,monospace" font-size="11.00">UserManagerTest</text>
</g>
<!-- \\PHPUnit_Framework_TestCase -->
<g id="node21" class="node"><title>\\PHPUnit_Framework_TestCase</title>
<ellipse fill="none" stroke="black" cx="192.383" cy="-18" rx="130.777" ry="18"/>
<text text-anchor="middle" x="192.383" y="-14.3" font-family="Times New Roman,serif" font-size="14.00" fill="gray">\PHPUnit_Framework_TestCase</text>
</g>
<!-- \\UserManagerTest&#45;&gt;\\PHPUnit_Framework_TestCase -->
<g id="edge4" class="edge"><title>\\UserManagerTest&#45;&gt;\\PHPUnit_Framework_TestCase</title>
<path fill="none" stroke="black" d="M517.808,-159.693C494.072,-130.051 442.743,-72.1385 384.766,-45 366.288,-36.3507 345.792,-30.2869 325.278,-26.0683"/>
<polygon fill="none" stroke="black" points="325.695,-22.5847 315.216,-24.1424 324.379,-29.4599 325.695,-22.5847"/>
</g>
<!-- \\UserManagerTest1 -->
<g id="node18" class="node"><title>\\UserManagerTest1</title>
<polygon fill="none" stroke="black" points="595.266,-250 470.266,-250 470.266,-214 595.266,-214 595.266,-250"/>
<text text-anchor="middle" x="532.766" y="-229.2" font-family="Courier,monospace" font-size="11.00">UserManagerTest1</text>
</g>
<!-- \\UserManagerTest1&#45;&gt;\\PHPUnit_Framework_TestCase -->
<g id="edge5" class="edge"><title>\\UserManagerTest1&#45;&gt;\\PHPUnit_Framework_TestCase</title>
<path fill="none" stroke="black" d="M470.157,-217.649C463.268,-214.281 456.765,-210.126 451.266,-205 394.933,-152.494 445.672,-92.1254 384.766,-45 369.624,-33.2843 351.726,-25.4497 333.051,-20.3481"/>
<polygon fill="none" stroke="black" points="333.773,-16.9212 323.225,-17.9233 332.096,-23.7173 333.773,-16.9212"/>
</g>
</g>
</svg>
